<mxfile host="65bd71144e" pages="2">
    <diagram id="0vcb0t_eaaf1a7-BUGBO" name="Golang-CleanArchitecture">
        <mxGraphModel dx="1316" dy="629" grid="1" gridSize="10" guides="1" tooltips="1" connect="1" arrows="1" fold="1" page="1" pageScale="1" pageWidth="850" pageHeight="1100" math="0" shadow="0">
            <root>
                <mxCell id="0"/>
                <mxCell id="1" parent="0"/>
                <mxCell id="CMKKINMTs_8hosKtkGVu-1" value="" style="ellipse;whiteSpace=wrap;html=1;aspect=fixed;fillColor=#f5f5f5;strokeColor=#666666;gradientColor=#b3b3b3;" parent="1" vertex="1">
                    <mxGeometry x="250" y="330" width="360" height="360" as="geometry"/>
                </mxCell>
                <mxCell id="CMKKINMTs_8hosKtkGVu-2" value="" style="ellipse;whiteSpace=wrap;html=1;aspect=fixed;" parent="1" vertex="1">
                    <mxGeometry x="390" y="470" width="80" height="80" as="geometry"/>
                </mxCell>
                <mxCell id="CMKKINMTs_8hosKtkGVu-3" value="" style="ellipse;whiteSpace=wrap;html=1;aspect=fixed;fillColor=#dae8fc;strokeColor=#6c8ebf;gradientColor=#7ea6e0;" parent="1" vertex="1">
                    <mxGeometry x="300" y="380" width="260" height="260" as="geometry"/>
                </mxCell>
                <mxCell id="CMKKINMTs_8hosKtkGVu-4" value="&lt;blockquote style=&quot;margin: 0 0 0 40px ; border: none ; padding: 0px&quot;&gt;&lt;br&gt;&lt;/blockquote&gt;" style="ellipse;whiteSpace=wrap;html=1;aspect=fixed;fillColor=#f8cecc;strokeColor=#b85450;gradientColor=#ea6b66;" parent="1" vertex="1">
                    <mxGeometry x="350" y="430" width="160" height="160" as="geometry"/>
                </mxCell>
                <mxCell id="CMKKINMTs_8hosKtkGVu-5" value="&lt;font color=&quot;#663300&quot;&gt;domain&lt;/font&gt;" style="ellipse;whiteSpace=wrap;html=1;aspect=fixed;fillColor=#d5e8d4;strokeColor=#82b366;gradientColor=#97d077;" parent="1" vertex="1">
                    <mxGeometry x="390" y="470" width="80" height="80" as="geometry"/>
                </mxCell>
                <mxCell id="CMKKINMTs_8hosKtkGVu-6" value="usercase" style="text;html=1;strokeColor=#005700;fillColor=#008a00;align=center;verticalAlign=middle;whiteSpace=wrap;rounded=0;fontColor=#ffffff;" parent="1" vertex="1">
                    <mxGeometry x="400" y="440" width="60" height="30" as="geometry"/>
                </mxCell>
                <mxCell id="CMKKINMTs_8hosKtkGVu-7" value="interface" style="text;html=1;strokeColor=#005700;fillColor=#008a00;align=center;verticalAlign=middle;whiteSpace=wrap;rounded=0;fontColor=#ffffff;" parent="1" vertex="1">
                    <mxGeometry x="400" y="390" width="60" height="30" as="geometry"/>
                </mxCell>
                <mxCell id="CMKKINMTs_8hosKtkGVu-8" value="infrastructure" style="text;html=1;strokeColor=#005700;fillColor=#008a00;align=center;verticalAlign=middle;whiteSpace=wrap;rounded=0;fontColor=#ffffff;" parent="1" vertex="1">
                    <mxGeometry x="387.5" y="340" width="85" height="30" as="geometry"/>
                </mxCell>
                <mxCell id="CMKKINMTs_8hosKtkGVu-9" value="&lt;pre style=&quot;background-color: #2b2b2b ; color: #a9b7c6 ; font-family: &amp;#34;jetbrains mono&amp;#34; , monospace ; font-size: 12.0pt&quot;&gt;&lt;span style=&quot;color: #ffc66d&quot;&gt;FindById interface&lt;/span&gt;&lt;/pre&gt;" style="text;html=1;strokeColor=none;fillColor=none;align=center;verticalAlign=middle;whiteSpace=wrap;rounded=0;" parent="1" vertex="1">
                    <mxGeometry x="660" y="497.5" width="190" height="25" as="geometry"/>
                </mxCell>
                <mxCell id="CMKKINMTs_8hosKtkGVu-10" value="" style="endArrow=classic;html=1;rounded=0;exitX=0;exitY=0.5;exitDx=0;exitDy=0;entryX=0.975;entryY=0.729;entryDx=0;entryDy=0;entryPerimeter=0;endFill=1;strokeColor=#FF9933;" parent="1" source="CMKKINMTs_8hosKtkGVu-9" target="CMKKINMTs_8hosKtkGVu-5" edge="1">
                    <mxGeometry width="50" height="50" relative="1" as="geometry">
                        <mxPoint x="400" y="600" as="sourcePoint"/>
                        <mxPoint x="460" y="540" as="targetPoint"/>
                    </mxGeometry>
                </mxCell>
                <mxCell id="CMKKINMTs_8hosKtkGVu-11" value="" style="endArrow=classic;html=1;rounded=0;exitX=0;exitY=0.5;exitDx=0;exitDy=0;entryX=1;entryY=0.5;entryDx=0;entryDy=0;startArrow=none;startFill=0;endFill=1;strokeColor=#FF9933;" parent="1" source="CMKKINMTs_8hosKtkGVu-9" target="CMKKINMTs_8hosKtkGVu-4" edge="1">
                    <mxGeometry width="50" height="50" relative="1" as="geometry">
                        <mxPoint x="640" y="522.5" as="sourcePoint"/>
                        <mxPoint x="470" y="550" as="targetPoint"/>
                    </mxGeometry>
                </mxCell>
                <mxCell id="CMKKINMTs_8hosKtkGVu-12" value="&lt;pre style=&quot;background-color: #2b2b2b ; color: #a9b7c6 ; font-family: &amp;#34;jetbrains mono&amp;#34; , monospace ; font-size: 12.0pt&quot;&gt;&lt;span style=&quot;color: #ffc66d&quot;&gt;FindById implementation&lt;/span&gt;&lt;/pre&gt;" style="text;html=1;strokeColor=none;fillColor=none;align=center;verticalAlign=middle;whiteSpace=wrap;rounded=0;" parent="1" vertex="1">
                    <mxGeometry x="650" y="460" width="250" height="25" as="geometry"/>
                </mxCell>
                <mxCell id="CMKKINMTs_8hosKtkGVu-15" value="" style="endArrow=classic;html=1;rounded=0;exitX=0;exitY=0.5;exitDx=0;exitDy=0;entryX=0.987;entryY=0.401;entryDx=0;entryDy=0;entryPerimeter=0;strokeColor=#FF9933;" parent="1" source="CMKKINMTs_8hosKtkGVu-12" target="CMKKINMTs_8hosKtkGVu-3" edge="1">
                    <mxGeometry width="50" height="50" relative="1" as="geometry">
                        <mxPoint x="400" y="580" as="sourcePoint"/>
                        <mxPoint x="450" y="530" as="targetPoint"/>
                    </mxGeometry>
                </mxCell>
                <mxCell id="CMKKINMTs_8hosKtkGVu-17" style="rounded=0;orthogonalLoop=1;jettySize=auto;html=1;entryX=0.892;entryY=0.185;entryDx=0;entryDy=0;entryPerimeter=0;startArrow=none;startFill=0;endArrow=classic;endFill=1;exitX=0;exitY=0.5;exitDx=0;exitDy=0;strokeColor=#FF9933;" parent="1" source="CMKKINMTs_8hosKtkGVu-16" target="CMKKINMTs_8hosKtkGVu-4" edge="1">
                    <mxGeometry relative="1" as="geometry"/>
                </mxCell>
                <mxCell id="CMKKINMTs_8hosKtkGVu-16" value="&lt;pre style=&quot;background-color: #2b2b2b ; color: #a9b7c6 ; font-family: &amp;#34;jetbrains mono&amp;#34; , monospace ; font-size: 12.0pt&quot;&gt;&lt;span style=&quot;color: #ffc66d&quot;&gt;FindById usage&lt;/span&gt;&lt;/pre&gt;" style="text;html=1;strokeColor=none;fillColor=none;align=center;verticalAlign=middle;whiteSpace=wrap;rounded=0;" parent="1" vertex="1">
                    <mxGeometry x="660" y="415" width="140" height="25" as="geometry"/>
                </mxCell>
                <mxCell id="CMKKINMTs_8hosKtkGVu-19" style="edgeStyle=none;rounded=0;orthogonalLoop=1;jettySize=auto;html=1;entryX=1;entryY=0;entryDx=0;entryDy=0;startArrow=none;startFill=0;endArrow=classic;endFill=1;strokeColor=#FF9933;exitX=0;exitY=1;exitDx=0;exitDy=0;" parent="1" source="CMKKINMTs_8hosKtkGVu-18" target="CMKKINMTs_8hosKtkGVu-3" edge="1">
                    <mxGeometry relative="1" as="geometry"/>
                </mxCell>
                <mxCell id="CMKKINMTs_8hosKtkGVu-18" value="&lt;pre style=&quot;background-color: #2b2b2b ; color: #a9b7c6 ; font-family: &amp;#34;jetbrains mono&amp;#34; , monospace ; font-size: 12.0pt&quot;&gt;DbHandler &lt;span style=&quot;color: #cc7832&quot;&gt;interface and usage&lt;/span&gt;&lt;/pre&gt;" style="text;html=1;strokeColor=none;fillColor=none;align=center;verticalAlign=middle;whiteSpace=wrap;rounded=0;" parent="1" vertex="1">
                    <mxGeometry x="635" y="330" width="190" height="30" as="geometry"/>
                </mxCell>
                <mxCell id="CMKKINMTs_8hosKtkGVu-21" style="edgeStyle=none;rounded=0;orthogonalLoop=1;jettySize=auto;html=1;entryX=0.796;entryY=0.093;entryDx=0;entryDy=0;entryPerimeter=0;startArrow=none;startFill=0;endArrow=classic;endFill=1;strokeColor=#FF9933;" parent="1" source="CMKKINMTs_8hosKtkGVu-20" target="CMKKINMTs_8hosKtkGVu-1" edge="1">
                    <mxGeometry relative="1" as="geometry"/>
                </mxCell>
                <mxCell id="CMKKINMTs_8hosKtkGVu-20" value="&lt;pre style=&quot;background-color: #2b2b2b ; color: #a9b7c6 ; font-family: &amp;#34;jetbrains mono&amp;#34; , monospace ; font-size: 12.0pt&quot;&gt;DbHandler &lt;span style=&quot;color: #cc7832&quot;&gt;implementation&lt;/span&gt;&lt;/pre&gt;" style="text;html=1;strokeColor=none;fillColor=none;align=center;verticalAlign=middle;whiteSpace=wrap;rounded=0;" parent="1" vertex="1">
                    <mxGeometry x="520" y="290" width="220" height="30" as="geometry"/>
                </mxCell>
                <mxCell id="CMKKINMTs_8hosKtkGVu-22" value="- Outer circle handle implementation&lt;br&gt;- Inner circle declares interfaces" style="strokeWidth=1;shadow=0;dashed=0;align=left;html=1;shape=mxgraph.mockup.text.stickyNote2;fontColor=#666666;mainText=;fontSize=17;whiteSpace=wrap;fillColor=#ffffcc;strokeColor=#F62E00;" parent="1" vertex="1">
                    <mxGeometry x="10" y="175" width="200" height="200" as="geometry"/>
                </mxCell>
            </root>
        </mxGraphModel>
    </diagram>
</mxfile>